<svg width="20" height="20" viewBox="0 0 20 20" fill="none" xmlns="http://www.w3.org/2000/svg">
<path d="M13.6846 1.45446C12.749 0.516515 11.4422 0 10 0C8.55004 0 7.23902 0.51339 6.30779 1.44553C5.36648 2.38793 4.90783 3.66873 5.01552 5.05176C5.22898 7.7803 7.46498 9.99993 10 9.99993C12.535 9.99993 14.7672 7.78075 14.984 5.05265C15.0931 3.68212 14.6316 2.404 13.6846 1.45446ZM18.4613 19.9999H1.53869C1.31719 20.0026 1.09783 19.9594 0.896579 19.8734C0.695323 19.7874 0.517233 19.6609 0.375264 19.503C0.0627733 19.1561 -0.0631848 18.6825 0.0300818 18.2035C0.43584 16.1133 1.70216 14.3575 3.69248 13.1249C5.4607 12.0307 7.70054 11.4285 10 11.4285C12.2994 11.4285 14.5393 12.0312 16.3076 13.1249C18.2979 14.3571 19.5641 16.1129 19.9699 18.203C20.0632 18.682 19.9372 19.1557 19.6248 19.5026C19.4828 19.6606 19.3048 19.7872 19.1034 19.8732C18.9022 19.9592 18.6829 20.0025 18.4613 19.9999Z" fill="#7EB693"/>
</svg>
